<svg  xmlns="http://www.w3.org/2000/svg"
      xmlns:xlink="http://www.w3.org/1999/xlink" viewBox="0 0 7 7">
                                        <rect x="0" y="0" height="1" width="1" fill="rgb(222, 135, 25)"/>
                                                <rect x="1" y="0" height="1" width="1" fill="rgb(230, 252, 152)"/>
                                                <rect x="2" y="0" height="1" width="1" fill="rgb(230, 252, 152)"/>
                                                <rect x="3" y="0" height="1" width="1" fill="rgb(222, 135, 25)"/>
                                                <rect x="4" y="0" height="1" width="1" fill="rgb(230, 252, 152)"/>
                                                <rect x="5" y="0" height="1" width="1" fill="rgb(230, 252, 152)"/>
                                                <rect x="6" y="0" height="1" width="1" fill="rgb(222, 135, 25)"/>
                                                            <rect x="0" y="1" height="1" width="1" fill="rgb(77, 128, 198)"/>
                                                <rect x="1" y="1" height="1" width="1" fill="rgb(230, 252, 152)"/>
                                                <rect x="2" y="1" height="1" width="1" fill="rgb(77, 128, 198)"/>
                                                <rect x="3" y="1" height="1" width="1" fill="rgb(77, 128, 198)"/>
                                                <rect x="4" y="1" height="1" width="1" fill="rgb(77, 128, 198)"/>
                                                <rect x="5" y="1" height="1" width="1" fill="rgb(230, 252, 152)"/>
                                                <rect x="6" y="1" height="1" width="1" fill="rgb(77, 128, 198)"/>
                                                            <rect x="0" y="2" height="1" width="1" fill="rgb(230, 252, 152)"/>
                                                <rect x="1" y="2" height="1" width="1" fill="rgb(222, 135, 25)"/>
                                                <rect x="2" y="2" height="1" width="1" fill="rgb(79, 153, 253)"/>
                                                <rect x="3" y="2" height="1" width="1" fill="rgb(230, 252, 152)"/>
                                                <rect x="4" y="2" height="1" width="1" fill="rgb(79, 153, 253)"/>
                                                <rect x="5" y="2" height="1" width="1" fill="rgb(222, 135, 25)"/>
                                                <rect x="6" y="2" height="1" width="1" fill="rgb(230, 252, 152)"/>
                                                            <rect x="0" y="3" height="1" width="1" fill="rgb(222, 135, 25)"/>
                                                <rect x="1" y="3" height="1" width="1" fill="rgb(230, 252, 152)"/>
                                                <rect x="2" y="3" height="1" width="1" fill="rgb(222, 135, 25)"/>
                                                <rect x="3" y="3" height="1" width="1" fill="rgb(79, 153, 253)"/>
                                                <rect x="4" y="3" height="1" width="1" fill="rgb(222, 135, 25)"/>
                                                <rect x="5" y="3" height="1" width="1" fill="rgb(230, 252, 152)"/>
                                                <rect x="6" y="3" height="1" width="1" fill="rgb(222, 135, 25)"/>
                                                            <rect x="0" y="4" height="1" width="1" fill="rgb(77, 128, 198)"/>
                                                <rect x="1" y="4" height="1" width="1" fill="rgb(222, 135, 25)"/>
                                                <rect x="2" y="4" height="1" width="1" fill="rgb(77, 128, 198)"/>
                                                <rect x="3" y="4" height="1" width="1" fill="rgb(222, 135, 25)"/>
                                                <rect x="4" y="4" height="1" width="1" fill="rgb(77, 128, 198)"/>
                                                <rect x="5" y="4" height="1" width="1" fill="rgb(222, 135, 25)"/>
                                                <rect x="6" y="4" height="1" width="1" fill="rgb(77, 128, 198)"/>
                                                            <rect x="0" y="5" height="1" width="1" fill="rgb(222, 135, 25)"/>
                                                <rect x="1" y="5" height="1" width="1" fill="rgb(77, 128, 198)"/>
                                                <rect x="2" y="5" height="1" width="1" fill="rgb(77, 128, 198)"/>
                                                <rect x="3" y="5" height="1" width="1" fill="rgb(222, 135, 25)"/>
                                                <rect x="4" y="5" height="1" width="1" fill="rgb(77, 128, 198)"/>
                                                <rect x="5" y="5" height="1" width="1" fill="rgb(77, 128, 198)"/>
                                                <rect x="6" y="5" height="1" width="1" fill="rgb(222, 135, 25)"/>
                                                            <rect x="0" y="6" height="1" width="1" fill="rgb(79, 153, 253)"/>
                                                <rect x="1" y="6" height="1" width="1" fill="rgb(222, 135, 25)"/>
                                                <rect x="2" y="6" height="1" width="1" fill="rgb(77, 128, 198)"/>
                                                <rect x="3" y="6" height="1" width="1" fill="rgb(230, 252, 152)"/>
                                                <rect x="4" y="6" height="1" width="1" fill="rgb(77, 128, 198)"/>
                                                <rect x="5" y="6" height="1" width="1" fill="rgb(222, 135, 25)"/>
                                                <rect x="6" y="6" height="1" width="1" fill="rgb(79, 153, 253)"/>
                        </svg>